HIERARCHY
ROOT joint_0
{
	OFFSET 0.000000 0.000000 0.000000
	CHANNELS 6 Xposition Yposition Zposition Zrotation Yrotation Xrotation 
	JOINT joint_1
	{
		OFFSET 6.579712 -2.778931 100.531982
		CHANNELS 3 Zrotation Yrotation Xrotation
		JOINT joint_2
		{
			OFFSET -3.313232 -1.302856 91.974976
			CHANNELS 3 Zrotation Yrotation Xrotation
			JOINT joint_3
			{
				OFFSET -3.421509 -1.641846 91.864014
				CHANNELS 3 Zrotation Yrotation Xrotation
				JOINT joint_4
				{
					OFFSET 7.697388 -4.642578 123.278931
					CHANNELS 3 Zrotation Yrotation Xrotation
					JOINT joint_5
					{
						OFFSET 24.842529 -5.941528 79.695068
						CHANNELS 3 Zrotation Yrotation Xrotation
						End Site
						{
							OFFSET 0.000000 0.000000 0.000000
						}
					}
				}
				JOINT joint_6
				{
					OFFSET -0.159668 -29.112976 68.364014
					CHANNELS 3 Zrotation Yrotation Xrotation
					JOINT joint_7
					{
						OFFSET -18.356079 -115.987061 -20.069092
						CHANNELS 3 Zrotation Yrotation Xrotation
						JOINT joint_8
						{
							OFFSET 31.719482 -11.733276 -267.170898
							CHANNELS 3 Zrotation Yrotation Xrotation
							JOINT joint_9
							{
								OFFSET 29.329956 -5.879517 -234.654053
								CHANNELS 3 Zrotation Yrotation Xrotation
								End Site
								{
									OFFSET 0.000000 0.000000 0.000000
								}
							}
						}
					}
				}
				JOINT joint_10
				{
					OFFSET 8.802979 23.897949 69.798950
					CHANNELS 3 Zrotation Yrotation Xrotation
					JOINT joint_11
					{
						OFFSET 21.159058 115.524292 -19.981934
						CHANNELS 3 Zrotation Yrotation Xrotation
						JOINT joint_12
						{
							OFFSET 18.809204 5.403442 -268.593018
							CHANNELS 3 Zrotation Yrotation Xrotation
							JOINT joint_13
							{
								OFFSET 20.807861 0.421265 -235.639038
								CHANNELS 3 Zrotation Yrotation Xrotation
								End Site
								{
									OFFSET 0.000000 0.000000 0.000000
								}
							}
						}
					}
				}
			}
		}
	}
	JOINT joint_14
	{
		OFFSET -9.713379 -79.513916 -99.348022
		CHANNELS 3 Zrotation Yrotation Xrotation
		JOINT joint_15
		{
			OFFSET -40.607788 -6.518372 -502.938019
			CHANNELS 3 Zrotation Yrotation Xrotation
			JOINT joint_16
			{
				OFFSET -19.807617 -7.437378 -399.590012
				CHANNELS 3 Zrotation Yrotation Xrotation
				JOINT joint_17
				{
					OFFSET 171.701660 -44.751282 -77.782000
					CHANNELS 3 Zrotation Yrotation Xrotation
					End Site
					{
						OFFSET 0.000000 0.000000 0.000000
					}
				}
			}
		}
	}
	JOINT joint_18
	{
		OFFSET 17.854858 79.618652 -98.128052
		CHANNELS 3 Zrotation Yrotation Xrotation
		JOINT joint_19
		{
			OFFSET -24.848877 16.861816 -503.722992
			CHANNELS 3 Zrotation Yrotation Xrotation
			JOINT joint_20
			{
				OFFSET -30.162476 14.470093 -398.750008
				CHANNELS 3 Zrotation Yrotation Xrotation
				JOINT joint_21
				{
					OFFSET 176.096680 -10.987549 -80.021000
					CHANNELS 3 Zrotation Yrotation Xrotation
					End Site
					{
						OFFSET 0.000000 0.000000 0.000000
					}
				}
			}
		}
	}
}
MOTION
Frames: 16
Frame Time: 0.016667
-954.797668 1011.258789 1097.432983 30.044296 0.081443 -0.098080 0.292054 -0.814199 -0.416067 0.340395 0.112266 0.094625 0.330003 -0.183105 -0.070289 0.554035 0.953778 -1.787763 0.000000 0.000000 0.000000 -1.073023 2.570790 0.241128 -0.304299 2.816127 -2.154422 -0.202120 0.151699 -1.454853 0.000000 0.000000 0.000000 1.058121 0.179321 1.206971 -0.240697 0.537893 -1.880059 0.285778 0.433282 5.715536 0.000000 0.000000 0.000000 2.763172 0.453419 -0.031252 2.733592 0.504108 0.040290 2.732365 -1.108309 0.958221 0.000000 0.000000 0.000000 -5.771083 -0.432121 -0.333128 -5.711892 1.390216 -0.367246 -5.639971 -0.804796 -2.609259 0.000000 0.000000 0.000000 
-954.808167 1011.179504 1097.439941 30.047298 0.088938 -0.096947 0.291709 -0.809098 -0.415095 0.339678 0.111048 0.093697 0.329352 -0.182191 -0.069831 0.554073 0.963071 -1.786396 0.000000 0.000000 0.000000 -1.072680 2.566685 0.240745 -0.304632 2.812551 -2.157769 -0.201775 0.148558 -1.454637 0.000000 0.000000 0.000000 1.062407 0.189945 1.207488 -0.240737 0.547392 -1.876558 0.285936 0.435211 5.711454 0.000000 0.000000 0.000000 2.761413 0.442773 -0.028770 2.732337 0.502086 0.038593 2.730656 -1.100586 0.959456 0.000000 0.000000 0.000000 -5.772553 -0.441733 -0.327652 -5.712826 1.386613 -0.370396 -5.640796 -0.799387 -2.609292 0.000000 0.000000 0.000000 
-954.821777 1011.102905 1097.444946 30.048559 0.094691 -0.095575 0.291899 -0.804030 -0.414395 0.339545 0.111075 0.092836 0.329277 -0.182336 -0.068689 0.554829 0.972619 -1.787651 0.000000 0.000000 0.000000 -1.072928 2.563762 0.239318 -0.304910 2.809789 -2.160530 -0.201432 0.145441 -1.454431 0.000000 0.000000 0.000000 1.065652 0.200093 1.207189 -0.240827 0.556709 -1.874564 0.286181 0.438222 5.707938 0.000000 0.000000 0.000000 2.760313 0.433923 -0.027068 2.731612 0.500092 0.037467 2.729561 -1.094117 0.960639 0.000000 0.000000 0.000000 -5.773432 -0.450145 -0.323280 -5.713229 1.384753 -0.372815 -5.641164 -0.795310 -2.609202 0.000000 0.000000 0.000000 
-954.841614 1011.031738 1097.449951 30.047801 0.099339 -0.093738 0.292368 -0.799601 -0.413867 0.339771 0.110810 0.093248 0.329518 -0.180929 -0.068656 0.555833 0.980413 -1.790155 0.000000 0.000000 0.000000 -1.072209 2.560958 0.238742 -0.305394 2.807651 -2.164349 -0.201165 0.143281 -1.454056 0.000000 0.000000 0.000000 1.067899 0.208969 1.205510 -0.240720 0.564782 -1.873040 0.286684 0.444580 5.704768 0.000000 0.000000 0.000000 2.759982 0.426023 -0.027288 2.731360 0.498140 0.038080 2.729130 -1.088636 0.961863 0.000000 0.000000 0.000000 -5.773581 -0.459012 -0.320721 -5.712917 1.386438 -0.374064 -5.640927 -0.792171 -2.608896 0.000000 0.000000 0.000000 
-954.865906 1010.963501 1097.453979 30.045665 0.102332 -0.091590 0.293033 -0.794062 -0.412558 0.340095 0.109937 0.092775 0.329879 -0.179480 -0.068867 0.557193 0.987364 -1.794082 0.000000 0.000000 0.000000 -1.071334 2.558858 0.238377 -0.305893 2.806260 -2.168031 -0.200943 0.141469 -1.453761 0.000000 0.000000 0.000000 1.069949 0.217430 1.203483 -0.240605 0.572568 -1.872426 0.287236 0.451564 5.701606 0.000000 0.000000 0.000000 2.760166 0.419656 -0.028338 2.731500 0.496499 0.039140 2.729166 -1.084113 0.963047 0.000000 0.000000 0.000000 -5.773390 -0.466839 -0.319356 -5.712323 1.389758 -0.374671 -5.640463 -0.789861 -2.608538 0.000000 0.000000 0.000000 
-954.895264 1010.895508 1097.458008 30.042443 0.104440 -0.089721 0.293669 -0.787396 -0.411848 0.340428 0.108493 0.093998 0.330206 -0.177924 -0.069208 0.558331 0.993400 -1.797371 0.000000 0.000000 0.000000 -1.070318 2.557460 0.237792 -0.306359 2.805500 -2.171358 -0.200569 0.139575 -1.452411 0.000000 0.000000 0.000000 1.072884 0.225442 1.200480 -0.240766 0.579879 -1.873709 0.287593 0.455960 5.698985 0.000000 0.000000 0.000000 2.760734 0.413347 -0.029194 2.732031 0.496060 0.040044 2.729620 -1.079714 0.964392 0.000000 0.000000 0.000000 -5.772618 -0.473849 -0.318260 -5.711202 1.393270 -0.374697 -5.639456 -0.787719 -2.607947 0.000000 0.000000 0.000000 
-954.932373 1010.828125 1097.462036 30.037984 0.105724 -0.088774 0.295143 -0.778835 -0.408079 0.341331 0.106243 0.093298 0.331201 -0.175286 -0.069098 0.559341 0.998763 -1.800329 0.000000 0.000000 0.000000 -1.071676 2.556535 0.237274 -0.306707 2.804641 -2.173745 -0.200084 0.137239 -1.450607 0.000000 0.000000 0.000000 1.075382 0.232215 1.196958 -0.241204 0.586297 -1.877270 0.287648 0.456429 5.695993 0.000000 0.000000 0.000000 2.761676 0.406269 -0.029058 2.733005 0.497992 0.040670 2.730581 -1.075705 0.965871 0.000000 0.000000 0.000000 -5.771403 -0.479642 -0.316739 -5.709702 1.395852 -0.374161 -5.637991 -0.785210 -2.607128 0.000000 0.000000 0.000000 
-954.973633 1010.761475 1097.464966 30.032596 0.105898 -0.088072 0.296999 -0.769881 -0.404288 0.342645 0.104663 0.093164 0.332599 -0.172739 -0.068556 0.560302 1.002897 -1.803345 0.000000 0.000000 0.000000 -1.074530 2.556501 0.236046 -0.306949 2.804109 -2.175014 -0.199555 0.135077 -1.448349 0.000000 0.000000 0.000000 1.076929 0.238477 1.192966 -0.241971 0.592640 -1.883034 0.287465 0.453725 5.693487 0.000000 0.000000 0.000000 2.762950 0.399457 -0.028729 2.734309 0.501489 0.041151 2.731945 -1.072738 0.967262 0.000000 0.000000 0.000000 -5.769795 -0.484127 -0.315475 -5.707882 1.397994 -0.373251 -5.636171 -0.782730 -2.606152 0.000000 0.000000 0.000000 
-955.016724 1010.700928 1097.468994 30.026618 0.105317 -0.087648 0.298673 -0.761799 -0.399697 0.343776 0.102204 0.093061 0.333802 -0.170720 -0.068329 0.560988 1.008127 -1.805103 0.000000 0.000000 0.000000 -1.076276 2.558275 0.233980 -0.306986 2.805142 -2.174527 -0.199061 0.132915 -1.446354 0.000000 0.000000 0.000000 1.078808 0.245558 1.188157 -0.242885 0.599664 -1.889433 0.287160 0.449372 5.690563 0.000000 0.000000 0.000000 2.764485 0.393762 -0.028199 2.735933 0.504340 0.041003 2.733505 -1.068868 0.968982 0.000000 0.000000 0.000000 -5.768110 -0.487741 -0.314317 -5.705998 1.400512 -0.372377 -5.634314 -0.780616 -2.605183 0.000000 0.000000 0.000000 
-955.054993 1010.647339 1097.473999 30.019633 0.104092 -0.086990 0.298591 -0.758509 -0.395687 0.343380 0.101966 0.092236 0.333486 -0.169849 -0.067264 0.561191 1.011663 -1.805244 0.000000 0.000000 0.000000 -1.070643 2.562204 0.230312 -0.306667 2.808795 -2.170774 -0.198689 0.131272 -1.444880 0.000000 0.000000 0.000000 1.086459 0.254633 1.184048 -0.244191 0.608044 -1.897574 0.286577 0.441359 5.687674 0.000000 0.000000 0.000000 2.766451 0.389697 -0.027915 2.738019 0.506178 0.040129 2.735409 -1.065095 0.970836 0.000000 0.000000 0.000000 -5.765860 -0.490198 -0.313313 -5.703535 1.402935 -0.372604 -5.631967 -0.778511 -2.603996 0.000000 0.000000 0.000000 
-955.094177 1010.600464 1097.479004 30.012286 0.101944 -0.086442 0.297812 -0.757660 -0.391020 0.342402 0.104040 0.091457 0.332493 -0.171236 -0.066999 0.561028 1.016548 -1.803695 0.000000 0.000000 0.000000 -1.062057 2.568017 0.225970 -0.306111 2.814423 -2.165216 -0.198252 0.129275 -1.443195 0.000000 0.000000 0.000000 1.095353 0.264937 1.179914 -0.245802 0.617582 -1.906928 0.285826 0.431138 5.685346 0.000000 0.000000 0.000000 2.768528 0.387018 -0.027597 2.740245 0.507525 0.038752 2.737371 -1.061087 0.972781 0.000000 0.000000 0.000000 -5.763390 -0.491522 -0.312640 -5.700892 1.405501 -0.372852 -5.629454 -0.776568 -2.602746 0.000000 0.000000 0.000000 
-955.138733 1010.555969 1097.484009 30.003325 0.100261 -0.085598 0.296567 -0.756401 -0.385874 0.340833 0.103615 0.089270 0.331061 -0.170650 -0.065372 0.561178 1.020953 -1.803364 0.000000 0.000000 0.000000 -1.052445 2.573204 0.220912 -0.305475 2.819375 -2.159031 -0.197822 0.127092 -1.441725 0.000000 0.000000 0.000000 1.104902 0.274767 1.174846 -0.247357 0.626369 -1.916275 0.285120 0.421506 5.683204 0.000000 0.000000 0.000000 2.771291 0.384293 -0.028510 2.743035 0.507015 0.038095 2.739847 -1.055900 0.975266 0.000000 0.000000 0.000000 -5.760663 -0.493055 -0.312414 -5.698039 1.407100 -0.373116 -5.626681 -0.774036 -2.601341 0.000000 0.000000 0.000000 
-955.185791 1010.513306 1097.487061 29.993799 0.098905 -0.083859 0.294809 -0.755768 -0.383239 0.338975 0.103836 0.089755 0.329170 -0.170174 -0.066086 0.561208 1.028420 -1.802003 0.000000 0.000000 0.000000 -1.044485 2.577629 0.216943 -0.304757 2.823364 -2.152357 -0.197458 0.124853 -1.440806 0.000000 0.000000 0.000000 1.112581 0.284359 1.170132 -0.248859 0.635162 -1.924807 0.284440 0.411918 5.681434 0.000000 0.000000 0.000000 2.774426 0.382718 -0.031164 2.746044 0.503072 0.038187 2.742434 -1.049371 0.978149 0.000000 0.000000 0.000000 -5.757643 -0.494299 -0.313222 -5.695007 1.407034 -0.373397 -5.623648 -0.770802 -2.599772 0.000000 0.000000 0.000000 
-955.237976 1010.474487 1097.489014 29.982757 0.097535 -0.081542 0.292612 -0.754966 -0.380514 0.336625 0.103549 0.089241 0.326873 -0.169589 -0.065443 0.561697 1.036325 -1.802327 0.000000 0.000000 0.000000 -1.035649 2.581817 0.211515 -0.303901 2.826839 -2.144582 -0.197111 0.122486 -1.440143 0.000000 0.000000 0.000000 1.120624 0.293899 1.164422 -0.250267 0.643655 -1.933342 0.283824 0.402868 5.679106 0.000000 0.000000 0.000000 2.778159 0.381709 -0.035356 2.749494 0.497372 0.039012 2.745432 -1.042041 0.981426 0.000000 0.000000 0.000000 -5.754136 -0.495031 -0.315033 -5.691611 1.405622 -0.373332 -5.620166 -0.767050 -2.597968 0.000000 0.000000 0.000000 
-955.304321 1010.440308 1097.491943 29.971603 0.095819 -0.079946 0.289619 -0.752034 -0.373931 0.333182 0.101835 0.087397 0.323596 -0.167624 -0.063858 0.562277 1.040889 -1.803521 0.000000 0.000000 0.000000 -1.026271 2.584179 0.205437 -0.303292 2.828722 -2.138182 -0.196998 0.120741 -1.440766 0.000000 0.000000 0.000000 1.129818 0.302197 1.157637 -0.251552 0.650676 -1.942569 0.283369 0.396048 5.677255 0.000000 0.000000 0.000000 2.782003 0.379781 -0.039628 2.752996 0.493105 0.040412 2.748607 -1.035190 0.984659 0.000000 0.000000 0.000000 -5.750503 -0.496427 -0.316722 -5.688020 1.405260 -0.373447 -5.616546 -0.763206 -2.596098 0.000000 0.000000 0.000000 
-955.388123 1010.413574 1097.495972 29.960509 0.094122 -0.079363 0.283128 -0.748763 -0.360662 0.325955 0.102298 0.084143 0.316538 -0.166851 -0.062140 0.563772 1.043745 -1.808372 0.000000 0.000000 0.000000 -1.006825 2.583708 0.199617 -0.303278 2.830240 -2.135654 -0.197033 0.119472 -1.442136 0.000000 0.000000 0.000000 1.149042 0.309934 1.149504 -0.252435 0.655380 -1.952489 0.283221 0.393363 5.673941 0.000000 0.000000 0.000000 2.785978 0.376244 -0.044002 2.756551 0.490774 0.042615 2.752003 -1.028786 0.987878 0.000000 0.000000 0.000000 -5.746663 -0.499108 -0.318329 -5.684131 1.406331 -0.373592 -5.612689 -0.759130 -2.594109 0.000000 0.000000 0.000000 
